<?xml version="1.0" encoding="UTF-8"?>
<svg version="1.1" xmlns="http://www.w3.org/2000/svg" width="1280" height="1280" viewBox="415 395 465 480">
<path d="M0 0 C1.2187381 -0.00810448 1.2187381 -0.00810448 2.46209717 -0.01637268 C5.14380616 -0.02885508 7.8244385 -0.01234768 10.50610352 0.00561523 C12.39299068 0.00545998 14.27987816 0.00396665 16.16676331 0.00120544 C20.13036132 -0.00017921 24.0935979 0.01237067 28.05712891 0.03515625 C33.06876824 0.06321435 38.07979844 0.06061221 43.09148121 0.04846668 C79.85451199 -0.02304931 116.88495718 0.62572298 147.69750977 23.50170898 C148.68750977 24.20295898 149.67750977 24.90420898 150.69750977 25.62670898 C162.30907107 35.75457079 169.58633134 50.78804792 170.91699219 66.01293945 C171.88580711 86.78254411 167.99920366 103.70943525 154.24047852 119.86499023 C137.58413492 137.13539258 111.95447847 145.57584919 88.46704102 147.71655273 C84.6371208 148.80232701 83.17686354 150.39967839 80.69750977 153.50170898 C80.24460176 156.38054817 80.09290336 158.64993352 80.1809082 161.51391602 C80.18488113 162.30652328 80.18885406 163.09913055 80.19294739 163.91575623 C80.20414103 165.63240879 80.22648616 167.34901716 80.25875092 169.06540298 C80.30745237 171.79129101 80.32144579 174.51537024 80.32574463 177.2416687 C80.34362749 184.99010624 80.41920169 192.73745389 80.52905273 200.48510742 C80.59392215 205.23094861 80.61441575 209.97539077 80.60889435 214.72164536 C80.61582162 216.52132711 80.63967699 218.32103285 80.68144989 220.12024307 C81.04467954 235.92812984 81.04467954 235.92812984 75.33691406 242.95825195 C73.82087501 244.50319728 72.27709758 246.02179926 70.69750977 247.50170898 C69.62928611 248.73683629 68.57390403 249.98350579 67.54516602 251.25170898 C66.61850088 252.33651418 65.69013226 253.4198667 64.76000977 254.50170898 C64.25767822 255.08710449 63.75534668 255.6725 63.23779297 256.27563477 C59.22220709 260.93525957 55.1132172 265.49894514 50.94750977 270.02514648 C48.87202846 272.30961722 46.87496389 274.64292715 44.88500977 277.00170898 C41.7041241 280.59493168 39.33519926 283.15090516 34.37719727 283.81030273 C28.43209009 284.10312145 25.49671888 283.25975463 20.69750977 279.50170898 C18.64831628 277.41775394 16.79571702 275.20162177 14.94750977 272.93920898 C13.89556833 271.6801886 12.84216285 270.42239012 11.78735352 269.16577148 C11.2677002 268.54476563 10.74804688 267.92375977 10.21264648 267.28393555 C8.04259503 264.73134521 5.78331127 262.27547458 3.51000977 259.81420898 C-0.60734552 255.32615934 -4.4971391 250.69362631 -8.32202148 245.95483398 C-9.9586544 243.92760425 -11.61861052 241.92705553 -13.30249023 239.93920898 C-16.82911409 235.64113616 -16.44574328 232.07543822 -16.436203 226.7150116 C-16.43846856 225.79394774 -16.44073412 224.87288389 -16.44306833 223.92390901 C-16.44942954 220.81856353 -16.4485776 217.71326145 -16.44775391 214.60791016 C-16.4507441 212.38915449 -16.45414631 210.17039935 -16.45793152 207.9516449 C-16.46679058 201.91029519 -16.46911045 195.86895963 -16.4697473 189.82760406 C-16.47069499 184.7902131 -16.47437171 179.75282548 -16.4779194 174.7154358 C-16.48560532 163.51232329 -16.48858737 152.30921749 -16.48791405 141.10610314 C-16.48787409 140.43348657 -16.48783414 139.76086999 -16.48779297 139.06787109 C-16.48775209 138.39443471 -16.48771121 137.72099833 -16.48766909 137.02715478 C-16.48726271 126.11514826 -16.49682921 115.20317627 -16.51093134 104.29117974 C-16.52529115 93.09153764 -16.53201853 81.89191186 -16.53133756 70.69225866 C-16.5310822 64.40265918 -16.53395402 58.11309873 -16.54451561 51.82350731 C-16.55417696 45.90810921 -16.55428926 39.99278761 -16.54699898 34.07738686 C-16.54595064 31.90414443 -16.5483307 29.73089728 -16.55435944 27.55766296 C-16.56204727 24.59480365 -16.55745576 21.63221065 -16.54972839 18.6693573 C-16.55487196 17.80593143 -16.56001552 16.94250556 -16.56531495 16.05291528 C-16.5406807 11.78916804 -16.42236126 8.32527716 -14.30249023 4.50170898 C-9.75561707 0.52178067 -5.84159884 -0.07472315 0 0 Z M-2.30249023 13.50170898 C-2.40259579 16.26841971 -2.4368847 19.01023969 -2.42947388 21.77746582 C-2.43103387 22.65557844 -2.43259386 23.53369105 -2.43420112 24.43841314 C-2.43821503 27.40418989 -2.43501997 30.36991616 -2.43188477 33.33569336 C-2.43323863 35.45241832 -2.43501848 37.56914304 -2.43719482 39.68586731 C-2.44177088 45.45222611 -2.43997889 51.2185671 -2.43681574 56.98492622 C-2.43429302 63.00496597 -2.43662943 69.02500414 -2.4382019 75.04504395 C-2.44002386 85.15674108 -2.43761661 95.26843092 -2.43286133 105.38012695 C-2.42741866 117.08908532 -2.4291813 128.79802629 -2.43468773 140.50698423 C-2.43921812 150.5400595 -2.43986978 160.57312951 -2.43724906 170.60620546 C-2.43568588 176.60728014 -2.43549365 182.60834662 -2.43878555 188.60942078 C-2.4416632 194.24981697 -2.43969055 199.8901906 -2.4338913 205.53058434 C-2.43256312 207.60713857 -2.43295878 209.68369469 -2.43515396 211.76024818 C-2.43786323 214.5821756 -2.4344871 217.40402949 -2.42947388 220.22595215 C-2.4317046 221.05891107 -2.43393532 221.89186999 -2.43623364 222.7500701 C-2.77400272 226.42690168 -2.77400272 226.42690168 -1.30249023 229.50170898 C0.5286686 229.60022069 2.3637091 229.63143527 4.19750977 229.62670898 C5.69797852 229.63057617 5.69797852 229.63057617 7.22875977 229.63452148 C9.64150599 229.7804128 9.64150599 229.7804128 10.69750977 228.50170898 C10.7954025 225.72009034 10.82743992 222.96330442 10.81776428 220.18125916 C10.81861871 219.29835742 10.81947313 218.41545569 10.82035345 217.50579935 C10.82201096 214.52386564 10.81648246 211.5419872 10.81103516 208.56005859 C10.81075332 206.43185935 10.81091095 204.30366 10.81147766 202.17546082 C10.81176576 196.37817581 10.805867 190.58091131 10.7989037 184.78363109 C10.79267226 178.73242848 10.79206653 172.68122546 10.7908783 166.63002014 C10.78776436 155.16235868 10.77955013 143.69470669 10.76952881 132.22704941 C10.7583696 119.17528064 10.75285771 106.12351143 10.74783337 93.07173908 C10.73736757 66.21505711 10.71976693 39.35838358 10.69750977 12.50170898 C8.71841579 12.47484346 6.73922006 12.45537523 4.76000977 12.43920898 C3.10678711 12.42180664 3.10678711 12.42180664 1.42016602 12.40405273 C-1.21696657 12.18908327 -1.21696657 12.18908327 -2.30249023 13.50170898 Z M26.69750977 12.50170898 C24.14676143 16.32783149 24.4191281 19.41897106 24.44354248 23.85266113 C24.4404225 24.71473726 24.43730252 25.57681338 24.43408799 26.46501303 C24.42608644 29.36468358 24.43244003 32.26414611 24.4387207 35.16381836 C24.4360118 37.23818586 24.43245144 39.3125524 24.42810059 41.38691711 C24.41896235 47.02934681 24.42252675 52.67170358 24.42885876 58.3141346 C24.43391133 64.21044236 24.42922938 70.10674376 24.42608643 76.00305176 C24.42244461 85.90609868 24.42725153 95.8091158 24.43676758 105.7121582 C24.44765253 117.17233655 24.4441271 128.63244375 24.43311477 140.09262037 C24.42404803 149.92025345 24.42275361 159.74786506 24.42799211 169.57550097 C24.43111518 175.45030414 24.4315119 181.32507384 24.42491913 187.19987488 C24.41915521 192.72213775 24.42312506 198.24430861 24.43470764 203.76656151 C24.43735934 205.79712458 24.43658049 207.82769535 24.43218231 209.85825539 C24.42674552 212.62252822 24.43353824 215.38650316 24.44354248 218.15075684 C24.43908104 218.96096204 24.43461959 219.77116725 24.43002295 220.60592413 C24.45706097 224.43764603 24.52027164 226.2358518 26.69750977 229.50170898 C29.0645589 229.90409744 29.0645589 229.90409744 31.69750977 229.75170898 C32.58438477 229.73624023 33.47125977 229.72077148 34.38500977 229.70483398 C36.72270387 229.64212654 36.72270387 229.64212654 38.69750977 228.50170898 C38.72083516 200.48646278 38.73848717 172.47121803 38.74932194 144.45596409 C38.75448566 131.4489923 38.76152981 118.44202652 38.77294922 105.43505859 C38.78289373 94.10266664 38.78936264 82.77027904 38.79159826 71.43788284 C38.79290576 65.43343723 38.79599411 59.42900408 38.80323982 53.42456245 C38.80999637 47.7800793 38.81212748 42.13561383 38.81061745 36.49112701 C38.81089394 34.41295971 38.81290122 32.33479186 38.81671524 30.25662804 C38.82164678 27.43246149 38.82051006 24.60836287 38.81776428 21.78419495 C38.82067712 20.9505539 38.82358997 20.11691286 38.82659107 19.25800997 C39.16819524 15.57884306 39.16819524 15.57884306 37.69750977 12.50170898 C35.88938253 12.35078986 34.07420359 12.2800189 32.26000977 12.25170898 C31.27129883 12.22592773 30.28258789 12.20014648 29.26391602 12.17358398 C28.41700195 12.28186523 27.57008789 12.39014648 26.69750977 12.50170898 Z M53.69750977 12.50170898 C51.87981826 14.31940049 52.57217629 16.8336321 52.56376636 19.25334787 C52.56599708 20.0863068 52.5682278 20.91926572 52.57052612 21.77746582 C52.56896613 22.65557844 52.56740614 23.53369105 52.56579888 24.43841314 C52.56178497 27.40418989 52.56498003 30.36991616 52.56811523 33.33569336 C52.56676137 35.45241832 52.56498152 37.56914304 52.56280518 39.68586731 C52.55822912 45.45222611 52.56002111 51.2185671 52.56318426 56.98492622 C52.56570698 63.00496597 52.56337057 69.02500414 52.5617981 75.04504395 C52.55997614 85.15674108 52.56238339 95.26843092 52.56713867 105.38012695 C52.57258134 117.08908532 52.5708187 128.79802629 52.56531227 140.50698423 C52.56078188 150.5400595 52.56013022 160.57312951 52.56275094 170.60620546 C52.56431412 176.60728014 52.56450635 182.60834662 52.56121445 188.60942078 C52.5583368 194.24981697 52.56030945 199.8901906 52.5661087 205.53058434 C52.56743688 207.60713857 52.56704122 209.68369469 52.56484604 211.76024818 C52.56213677 214.5821756 52.5655129 217.40402949 52.57052612 220.22595215 C52.5682954 221.05891107 52.56606468 221.89186999 52.56376636 222.7500701 C52.22599728 226.42690168 52.22599728 226.42690168 53.69750977 229.50170898 C55.34091843 229.60025554 56.98865587 229.6314331 58.63500977 229.62670898 C59.5309082 229.62928711 60.42680664 229.63186523 61.34985352 229.63452148 C63.71906532 229.65592311 63.71906532 229.65592311 65.69750977 228.50170898 C65.69750977 157.22170898 65.69750977 85.94170898 65.69750977 12.50170898 C61.73750977 12.50170898 57.77750977 12.50170898 53.69750977 12.50170898 Z " fill="#D25316" transform="translate(591.302490234375,522.498291015625)"/>
<path d="M0 0 C0.71414063 0.30292969 1.42828125 0.60585938 2.1640625 0.91796875 C4.46380041 1.90418595 6.73230503 2.94197211 9 4 C10.70542969 4.79470703 10.70542969 4.79470703 12.4453125 5.60546875 C26.55162694 12.33745702 39.84765441 20.52467066 52.1875 30.125 C53.07912842 30.81686401 53.07912842 30.81686401 53.98876953 31.52270508 C55.36878005 32.63033962 56.69141706 33.80882662 58 35 C58 35.66 58 36.32 58 37 C58.54785156 37.23203125 59.09570312 37.4640625 59.66015625 37.703125 C90.46354183 54.77612001 113.23838499 98.38158434 125 130 C125.35578125 130.90621094 125.7115625 131.81242188 126.078125 132.74609375 C130.81742068 145.10211463 133.96523859 157.85865481 136.25 170.875 C136.41306641 171.80086914 136.57613281 172.72673828 136.74414062 173.68066406 C138.74132476 185.64252222 139.20835326 197.51068408 139.1875 209.625 C139.18656342 210.33198029 139.18562683 211.03896057 139.18466187 211.7673645 C139.15354815 222.62850265 138.8543387 233.27911743 137 244 C136.83870605 244.94359375 136.67741211 245.8871875 136.51123047 246.859375 C131.05386078 277.91614904 120.66702797 310.32028667 101.5703125 335.89453125 C100.3631359 337.51310884 99.21966727 339.17934823 98.10546875 340.86328125 C91.90516288 350.10047162 84.71607954 358.51132927 77.125 366.625 C76.17983521 367.63699463 76.17983521 367.63699463 75.21557617 368.66943359 C71.98230234 372.07800281 68.70655174 375.10081596 65 378 C63.32941024 379.66273432 61.66277715 381.32945287 60 383 C23.38734264 414.76518715 -26.20969115 436.99253704 -75.1484375 437.203125 C-76.20044342 437.20882507 -77.25244934 437.21452515 -78.33633423 437.22039795 C-80.55673228 437.22980128 -82.777144 437.23636325 -84.99755859 437.24023438 C-88.33066421 437.24987181 -91.66313416 437.28091264 -94.99609375 437.3125 C-107.96269441 437.37710357 -120.28913337 436.59635172 -133 434 C-134.05429199 433.79052734 -135.10858398 433.58105469 -136.19482422 433.36523438 C-138.72703009 432.83022937 -141.23795822 432.2472039 -143.75 431.625 C-144.62575684 431.41077393 -145.50151367 431.19654785 -146.40380859 430.97583008 C-154.08795584 429.0530344 -161.5869705 426.80751168 -169 424 C-170.04559082 423.60868896 -170.04559082 423.60868896 -171.11230469 423.20947266 C-193.96657706 414.51240326 -214.69311474 401.81083487 -233.40625 386.15234375 C-235.97719818 384.01892139 -238.60648053 381.97985766 -241.25 379.9375 C-245.05292395 376.90835711 -248.20460344 373.71108237 -251.3046875 369.9765625 C-253.02069915 367.97586688 -254.84110339 366.19115669 -256.75 364.375 C-291.52861645 330.00000386 -315.82301824 274.87004537 -316.16459656 226.04672241 C-316.16570938 225.09028839 -316.1668222 224.13385437 -316.16796875 223.1484375 C-316.17129715 222.13133698 -316.17462555 221.11423645 -316.17805481 220.0663147 C-316.18309205 217.92328337 -316.18546413 215.78024428 -316.18530273 213.63720703 C-316.1874797 210.40513752 -316.20564392 207.17341514 -316.22460938 203.94140625 C-316.26662547 188.95544961 -315.15638764 174.82777806 -311.75 160.1875 C-311.53601563 159.25953613 -311.32203125 158.33157227 -311.1015625 157.37548828 C-307.954108 144.1503005 -303.51344364 131.42314898 -298 119 C-297.62359375 118.12601563 -297.2471875 117.25203125 -296.859375 116.3515625 C-285.22563693 89.90419796 -268.41399363 67.31584943 -248 47 C-247.31679688 46.29359375 -246.63359375 45.5871875 -245.9296875 44.859375 C-237.44708653 36.15100139 -228.09426295 28.74907116 -218 22 C-217.01 21.32453125 -216.02 20.6490625 -215 19.953125 C-200.32306783 10.19158049 -184.60537093 1.94297486 -168 -4 C-167.33000977 -4.24556641 -166.66001953 -4.49113281 -165.96972656 -4.74414062 C-112.88555557 -24.0786243 -51.78054496 -23.18175167 0 0 Z M-139 7 C-140.43641846 7.38551025 -140.43641846 7.38551025 -141.90185547 7.77880859 C-159.52560308 12.65384423 -177.34625455 19.46544596 -193 29 C-194.05703125 29.64195312 -195.1140625 30.28390625 -196.203125 30.9453125 C-220.24083233 45.84124649 -241.84654496 64.67441092 -258 88 C-259.05960937 89.45792969 -259.05960937 89.45792969 -260.140625 90.9453125 C-277.34103585 114.94168987 -288.06124596 142.1134744 -294.25 170.875 C-294.41314697 171.62289795 -294.57629395 172.3707959 -294.74438477 173.14135742 C-297.06924792 184.42170727 -297.18642604 195.7161973 -297.18530273 207.1862793 C-297.18748057 209.66537893 -297.20567429 212.14402598 -297.22460938 214.62304688 C-297.27581887 228.73341538 -295.94387582 242.29279317 -292.6875 256.0625 C-292.35830566 257.4690686 -292.35830566 257.4690686 -292.02246094 258.90405273 C-283.80648422 293.15785837 -266.23149819 328.05935481 -241 353 C-239.89405493 354.1375967 -238.7900174 355.27704977 -237.6875 356.41796875 C-223.35724661 371.1313736 -207.22028093 383.42805518 -189 393 C-187.74532669 393.6939274 -186.49150461 394.38939491 -185.23828125 395.0859375 C-175.73840713 400.3119139 -166.24278457 404.4695083 -156 408 C-155.05640625 408.35578125 -154.1128125 408.7115625 -153.140625 409.078125 C-110.7100369 424.52972645 -57.67722366 422.6089159 -16 406 C-15.19900879 405.68160156 -14.39801758 405.36320312 -13.57275391 405.03515625 C6.94288486 396.76986293 25.07412567 385.97074761 42.42724609 372.24365234 C43.95279676 371.03732587 45.48605265 369.84076358 47.01953125 368.64453125 C51.94628364 364.72874036 56.32333639 360.79466455 60.3359375 355.9453125 C62.0582834 353.93186589 63.89423222 352.13905777 65.8125 350.3125 C99.6826024 316.90187573 119.48002933 263.9129091 120 217 C120.02707031 215.87078125 120.05414062 214.7415625 120.08203125 213.578125 C120.12578372 210.3802174 120.07917494 207.19715938 120 204 C119.98324219 202.741875 119.96648437 201.48375 119.94921875 200.1875 C119.38903615 178.54408145 114.78336275 157.15400182 107 137 C106.69723145 136.19804199 106.39446289 135.39608398 106.08251953 134.56982422 C89.34458238 90.70030233 56.90791715 54.19359874 17 30 C15.88367188 29.31292969 14.76734375 28.62585938 13.6171875 27.91796875 C4.75438349 22.63864472 -4.38405227 18.68139356 -14 15 C-15.01191406 14.60941406 -16.02382813 14.21882813 -17.06640625 13.81640625 C-55.05284681 -0.3939507 -99.65190977 -3.71428378 -139 7 Z " fill="#D25315" transform="translate(736,438)"/>
<path d="M0 0 C0.83144531 -0.00515625 1.66289063 -0.0103125 2.51953125 -0.015625 C5.1875 0.25 5.1875 0.25 11.1875 2.25 C11.1875 74.85 11.1875 147.45 11.1875 222.25 C10.5275 221.92 9.8675 221.59 9.1875 221.25 C9.5175 149.64 9.8475 78.03 10.1875 4.25 C5.5675 4.25 0.9475 4.25 -3.8125 4.25 C-4.67807616 9.30030883 -4.67807616 9.30030883 -4.93554783 14.25231743 C-4.93753888 14.99229339 -4.93952993 15.73226936 -4.94158131 16.49466884 C-4.93866847 17.29039999 -4.93575563 18.08613113 -4.93275452 18.90597534 C-4.93360894 19.76456433 -4.93446337 20.62315333 -4.93534368 21.50776017 C-4.93698747 24.37742791 -4.93149515 27.24703688 -4.92602539 30.11669922 C-4.92574326 32.17667133 -4.92590177 34.23664355 -4.9264679 36.2966156 C-4.92675484 41.88493386 -4.92087466 47.47323067 -4.91389394 53.06154394 C-4.90764335 58.90318029 -4.90705525 64.74481712 -4.90586853 70.5864563 C-4.90276025 81.64666781 -4.89455363 92.70686945 -4.88451904 103.76707661 C-4.87334229 116.35947787 -4.86784351 128.9518796 -4.86282361 141.54428458 C-4.85237062 167.4461952 -4.8347809 193.34809705 -4.8125 219.25 C-5.8025 218.92 -6.7925 218.59 -7.8125 218.25 C-7.88249113 190.12165743 -7.93543955 161.99332786 -7.96793652 133.86491585 C-7.98342452 120.80525939 -8.00455088 107.74565695 -8.03881836 94.68603516 C-8.06866162 83.30712152 -8.08806092 71.92824699 -8.09476548 60.54929531 C-8.09868636 54.5207408 -8.10794092 48.49229819 -8.12969017 42.46377945 C-8.14997525 36.79545345 -8.15635003 31.127286 -8.15182304 25.45892715 C-8.15265183 23.37310933 -8.15866474 21.28728649 -8.17011642 19.20149994 C-8.18493579 16.36436999 -8.18149249 13.52784692 -8.17326355 10.69070435 C-8.18200207 9.8560852 -8.1907406 9.02146605 -8.19974393 8.16155541 C-8.18164349 5.86944771 -8.18164349 5.86944771 -7.8125 2.25 C-4.60834647 0.11389765 -3.69394564 -0.02269705 0 0 Z " fill="#CD4203" transform="translate(621.8125,531.75)"/>
<path d="M0 0 C1.18637306 -0.00087616 1.18637306 -0.00087616 2.39671326 -0.00177002 C4.99426143 0.00100246 7.59064219 0.03205351 10.18798828 0.06347656 C11.9954465 0.07094196 13.80291285 0.07663348 15.61038208 0.08062744 C20.35508788 0.09586031 25.09929968 0.13512172 29.84381104 0.17944336 C34.69023965 0.22044684 39.5367485 0.23864928 44.38330078 0.25878906 C53.88351718 0.30161838 63.38336781 0.36984114 72.88330078 0.45410156 C72.88330078 0.78410156 72.88330078 1.11410156 72.88330078 1.45410156 C71.46176193 1.46623184 71.46176193 1.46623184 70.01150513 1.47860718 C61.09402383 1.55598672 52.17669665 1.64370494 43.25941658 1.74162865 C38.67460296 1.7916415 34.08981294 1.8379709 29.50488281 1.87597656 C25.082764 1.91276661 20.66084033 1.95910902 16.23888779 2.01216507 C14.54917691 2.03074254 12.85942416 2.04583802 11.16965103 2.05744553 C8.80853404 2.07425098 6.44786727 2.10327114 4.08691406 2.13525391 C3.0317157 2.13849419 3.0317157 2.13849419 1.9552002 2.14179993 C-2.02505452 2.11140835 -2.02505452 2.11140835 -5.11669922 4.45410156 C-6.63263672 5.19660156 -6.63263672 5.19660156 -8.17919922 5.95410156 C-11.20276604 7.13190268 -11.20276604 7.13190268 -12.11669922 9.45410156 C-12.21493177 12.38264777 -12.25121339 15.28745673 -12.24368286 18.21629333 C-12.24524285 19.13468477 -12.24680284 20.0530762 -12.24841011 20.99929768 C-12.25241819 24.09549508 -12.24923118 27.19164398 -12.24609375 30.2878418 C-12.24744788 32.49999012 -12.24922789 34.71213822 -12.25140381 36.92428589 C-12.25597695 42.94690969 -12.25418899 48.96951642 -12.25102472 54.99214053 C-12.2485002 61.2835029 -12.25083895 67.57486377 -12.25241089 73.8662262 C-12.25434927 85.11208712 -12.25123321 96.35794098 -12.24615155 107.60380024 C-12.24168468 117.80496249 -12.24245863 128.00611335 -12.24707031 138.20727539 C-12.25241936 150.04510556 -12.25441507 161.88293022 -12.25145805 173.72076184 C-12.24989624 179.99016376 -12.24969888 186.25955785 -12.25299454 192.52895927 C-12.25587619 198.42299431 -12.2538921 204.31700779 -12.24810028 210.2110405 C-12.24677421 212.37867128 -12.24716422 214.54630387 -12.24936295 216.71393394 C-12.25208043 219.66428945 -12.24868586 222.61457513 -12.24368286 225.56492615 C-12.24591358 226.43028675 -12.2481443 227.29564735 -12.25044262 228.187231 C-12.2393902 231.5291488 -12.18096893 234.26129244 -11.11669922 237.45410156 C-11.77669922 237.45410156 -12.43669922 237.45410156 -13.11669922 237.45410156 C-13.61169922 238.44410156 -13.61169922 238.44410156 -14.11669922 239.45410156 C-15.69017454 236.65728767 -16.36685647 234.65091409 -16.3683815 231.44635105 C-16.37359699 230.65422295 -16.37881249 229.86209485 -16.38418603 229.04596287 C-16.37972459 228.18167052 -16.37526314 227.31737817 -16.3706665 226.42689514 C-16.37378649 225.50412244 -16.37690647 224.58134973 -16.38012099 223.63061422 C-16.38811293 220.53142893 -16.38177262 217.43243878 -16.37548828 214.33325195 C-16.37819763 212.11420069 -16.38175824 209.89515033 -16.3861084 207.67610168 C-16.39524188 201.64311503 -16.39168403 195.61019663 -16.38535023 189.57720876 C-16.38029458 183.2694424 -16.38498053 176.96168198 -16.38812256 170.65391541 C-16.39199713 159.37996391 -16.38577236 148.1060406 -16.37560388 136.83209573 C-16.36667047 126.61111155 -16.36821849 116.39017281 -16.37744141 106.16918945 C-16.38814607 94.30055774 -16.39212743 82.43194804 -16.38621688 70.56331056 C-16.38309628 64.2804524 -16.38269026 57.99762553 -16.38928986 51.71476936 C-16.39506113 45.8075454 -16.39107033 39.90040734 -16.37950134 33.99319267 C-16.37685348 31.82317625 -16.37762199 29.65315261 -16.38202667 27.48313904 C-16.38747856 24.52475847 -16.38065213 21.5666545 -16.3706665 18.60829163 C-16.37512795 17.74623 -16.37958939 16.88416837 -16.38418603 15.99598366 C-16.35623163 11.73629932 -16.23400699 8.2739258 -14.11669922 4.45410156 C-9.6077424 0.51974407 -5.79007411 -0.11316028 0 0 Z " fill="#CA4505" transform="translate(591.11669921875,522.5458984375)"/>
<path d="M0 0 C2.47923801 -0.02685095 4.9581884 -0.04676547 7.4375 -0.0625 C8.14455078 -0.07087891 8.85160156 -0.07925781 9.58007812 -0.08789062 C11.38693559 -0.09653588 13.19387603 -0.05220011 15 0 C16.82792989 1.82792989 16.12269005 4.37583153 16.12908131 6.80864722 C16.12471205 8.07078162 16.12471205 8.07078162 16.12025452 9.3584137 C16.12110894 10.24539898 16.12196337 11.13238427 16.12284368 12.0462479 C16.12450121 15.04200106 16.11897267 18.0376992 16.11352539 21.03344727 C16.11324355 23.1714986 16.11340119 25.30955004 16.1139679 27.44760132 C16.114256 33.27174493 16.10835722 39.09586814 16.10139394 44.92000699 C16.09516251 50.99923682 16.09455677 57.07846706 16.09336853 63.15769958 C16.09025459 74.67848498 16.08204036 86.19926094 16.07201904 97.72004217 C16.06085985 110.83226929 16.05534794 123.94449685 16.05032361 137.05672753 C16.03985779 164.03782359 16.02225714 191.01891127 16 218 C15.01 217.67 14.02 217.34 13 217 C13 146.05 13 75.1 13 2 C8.71 1.67 4.42 1.34 0 1 C0 0.67 0 0.34 0 0 Z " fill="#DE4304" transform="translate(644,533)"/>
<path d="M0 0 C0.66 0 1.32 0 2 0 C2.02332535 28.27601384 2.04097738 56.55202624 2.05181217 84.82804775 C2.05697591 97.95608783 2.06402007 111.08412195 2.07543945 124.2121582 C2.08538393 135.65002559 2.09185286 147.08788865 2.09408849 158.52576023 C2.095396 164.58609715 2.09848439 170.64642171 2.10573006 176.70675468 C2.11248656 182.40376745 2.11461772 188.10076269 2.11310768 193.79777908 C2.11338418 195.89529706 2.11539148 197.99281559 2.11920547 200.09033012 C2.12413694 202.94077083 2.12300032 205.79114424 2.12025452 208.6415863 C2.12316736 209.48300924 2.1260802 210.32443218 2.12908131 211.19135278 C2.11412121 216.88587879 2.11412121 216.88587879 1 218 C-1.53049402 218.07313567 -4.03304837 218.09247527 -6.5625 218.0625 C-7.27341797 218.05798828 -7.98433594 218.05347656 -8.71679688 218.04882812 C-10.47790013 218.03700864 -12.23896036 218.01907263 -14 218 C-14.33 217.01 -14.66 216.02 -15 215 C-10.05 215 -5.1 215 0 215 C0 144.05 0 73.1 0 0 Z " fill="#D55920" transform="translate(630,536)"/>
<path d="M0 0 C1.39456452 0.00667256 2.78911118 0.01863093 4.18359375 0.03515625 C4.89451172 0.03966797 5.60542969 0.04417969 6.33789062 0.04882812 C8.09899388 0.06064761 9.86005411 0.07858362 11.62109375 0.09765625 C11.62109375 0.42765625 11.62109375 0.75765625 11.62109375 1.09765625 C9.64109375 1.42765625 7.66109375 1.75765625 5.62109375 2.09765625 C5.62109375 2.42765625 5.62109375 2.75765625 5.62109375 3.09765625 C3.97109375 3.42765625 2.32109375 3.75765625 0.62109375 4.09765625 C0.6187054 5.17625286 0.61631704 6.25484947 0.61385632 7.36613083 C0.55511037 33.588221 0.47925805 59.81021892 0.38537884 86.03220749 C0.34037759 98.71286947 0.30097294 111.39350309 0.2746582 124.07421875 C0.25171317 135.12432649 0.21835438 146.17434481 0.17239219 157.22438169 C0.1484128 163.07746546 0.12971496 168.93046041 0.12347984 174.78359222 C0.11745031 180.28947275 0.09752786 185.79512589 0.06681824 191.30092239 C0.05800374 193.32459817 0.05432244 195.34830363 0.05608559 197.37199783 C0.05773002 200.12967253 0.04111028 202.88664714 0.01982117 205.64422607 C0.02466874 206.44967385 0.02951632 207.25512163 0.03451079 208.08497691 C-0.02003345 212.35019655 -0.29056087 215.016469 -3.37890625 218.09765625 C-3.53264315 189.82167046 -3.68068073 161.54565985 -3.82186985 133.2696085 C-3.88755532 120.14155583 -3.95512983 107.01351789 -4.02709961 93.88549805 C-4.08979889 82.44764792 -4.14900668 71.00978607 -4.20396179 59.57189602 C-4.2332032 53.51154714 -4.26423361 47.45121897 -4.29944038 41.39090157 C-4.33248142 35.69390865 -4.36087587 29.99691201 -4.38561249 24.29987717 C-4.39555628 22.20235105 -4.40723883 20.10483239 -4.42073631 18.00732613 C-4.43882604 15.15690643 -4.45081963 12.30652656 -4.4611969 9.45606995 C-4.46800069 8.61464701 -4.47480448 7.77322407 -4.48181444 6.90630347 C-4.48562761 4.96978764 -4.4381155 3.03327045 -4.37890625 1.09765625 C-3.37890625 0.09765625 -3.37890625 0.09765625 0 0 Z " fill="#CF4D0D" transform="translate(644.37890625,531.90234375)"/>
<path d="M0 0 C1.65322266 0.01740234 1.65322266 0.01740234 3.33984375 0.03515625 C4.99693359 0.04869141 4.99693359 0.04869141 6.6875 0.0625 C7.54214844 0.07410156 8.39679687 0.08570313 9.27734375 0.09765625 C9.27734375 0.42765625 9.27734375 0.75765625 9.27734375 1.09765625 C5.97734375 1.42765625 2.67734375 1.75765625 -0.72265625 2.09765625 C-1.71293731 7.04218681 -1.86127097 11.73798487 -1.84291077 16.75363159 C-1.84376519 17.61222058 -1.84461962 18.47080958 -1.84549993 19.35541642 C-1.84714372 22.22508416 -1.8416514 25.09469313 -1.83618164 27.96435547 C-1.83589951 30.02432758 -1.83605802 32.0842998 -1.83662415 34.14427185 C-1.83691109 39.73259011 -1.83103091 45.32088692 -1.82405019 50.90920019 C-1.8177996 56.75083654 -1.8172115 62.59247337 -1.81602478 68.43411255 C-1.8129165 79.49432406 -1.80470988 90.5545257 -1.79467529 101.61473286 C-1.78349854 114.20713412 -1.77799976 126.79953585 -1.77297986 139.39194083 C-1.76252687 165.29385145 -1.74493715 191.1957533 -1.72265625 217.09765625 C-2.38265625 217.09765625 -3.04265625 217.09765625 -3.72265625 217.09765625 C-3.74598162 188.95202623 -3.76363364 160.80639765 -3.77446842 132.66075993 C-3.77963215 119.59325399 -3.78667631 106.52575404 -3.7980957 93.45825195 C-3.8080402 82.07312228 -3.81450912 70.68799695 -3.81674474 59.30286306 C-3.81805225 53.27047179 -3.82114062 47.23809294 -3.82838631 41.20570564 C-3.83514283 35.53495768 -3.83727397 29.86422733 -3.83576393 24.19347572 C-3.83604043 22.10563308 -3.83804772 20.01778989 -3.84186172 17.92995071 C-3.84679323 15.09264709 -3.84565656 12.25541107 -3.84291077 9.41810608 C-3.84582361 8.58057409 -3.84873645 7.7430421 -3.85173756 6.88013035 C-3.83394224 0.13751586 -3.83394224 0.13751586 0 0 Z " fill="#E62A0D" transform="translate(618.72265625,533.90234375)"/>
<path d="M0 0 C0.99 0.99 0.99 0.99 2 2 C-4.19387839 2.20971514 -9.82368578 1.99573479 -15.85644531 0.57592773 C-44.09914961 -5.88244173 -76.06833194 -3.82059286 -104 3 C-107.50390625 3.78515625 -107.50390625 3.78515625 -110 4 C-110.99 3.34 -111.98 2.68 -113 2 C-104.78247459 -1.01737261 -96.55168141 -2.75358326 -87.9375 -4.1875 C-86.44959961 -4.43741699 -86.44959961 -4.43741699 -84.93164062 -4.69238281 C-57.121003 -9.15050675 -27.08965442 -8.12032117 0 0 Z " fill="#D24608" transform="translate(701,443)"/>
<path d="M0 0 C1.051875 -0.00515625 2.10375 -0.0103125 3.1875 -0.015625 C6 0.25 6 0.25 9 2.25 C3.39 2.91 -2.22 3.57 -8 4.25 C-8 75.2 -8 146.15 -8 219.25 C-8.33 219.25 -8.66 219.25 -9 219.25 C-9.06999099 190.99127354 -9.12293949 162.73256001 -9.15543652 134.47376442 C-9.17092455 121.35357394 -9.19205097 108.23343723 -9.22631836 95.11328125 C-9.25616153 83.6816299 -9.2755609 72.25001748 -9.28226548 60.81832826 C-9.28618637 54.76182831 -9.29544103 48.70543973 -9.31719017 42.64897537 C-9.33747511 36.95438474 -9.34385006 31.25995192 -9.33932304 25.5653286 C-9.34015184 23.46983547 -9.34616482 21.37433735 -9.35761642 19.27887535 C-9.37243556 16.42860913 -9.36899257 13.578947 -9.36076355 10.72866821 C-9.37387134 9.47090307 -9.37387134 9.47090307 -9.38724393 8.18772852 C-9.36914349 5.88506508 -9.36914349 5.88506508 -9 2.25 C-5.53767506 -0.05821663 -4.08201684 -0.02000989 0 0 Z " fill="#CD4504" transform="translate(595,531.75)"/>
<path d="M0 0 C-1.32 0.33 -2.64 0.66 -4 1 C-4 1.99 -4 2.98 -4 4 C-5.258125 4.2475 -6.51625 4.495 -7.8125 4.75 C-10.8276875 5.48385516 -11.76542813 5.73415188 -13.875 8.125 C-14.24625 8.74375 -14.6175 9.3625 -15 10 C-15.66 10 -16.32 10 -17 10 C-16.99333817 11.00811234 -16.98667633 12.01622467 -16.97981262 13.05488586 C-16.91905195 22.54583001 -16.87405166 32.03673481 -16.84456348 41.52782917 C-16.82889376 46.40755112 -16.80763169 51.28711632 -16.77368164 56.16674805 C-16.74113472 60.87405632 -16.72315683 65.58121363 -16.71536827 70.28862572 C-16.70981636 72.08642136 -16.69897506 73.88420854 -16.68280983 75.68194008 C-16.66109738 78.19610204 -16.65803044 80.70963664 -16.65942383 83.22387695 C-16.648638 83.97050095 -16.63785217 84.71712494 -16.6267395 85.4863739 C-16.65720989 90.55249454 -16.65720989 90.55249454 -18.52128601 92.98600769 C-19.00926163 93.32062515 -19.49723724 93.65524261 -20 94 C-19.93878463 83.00356494 -19.86167517 72.00736714 -19.76428509 61.01118946 C-19.7195618 55.90518078 -19.68030991 50.79925225 -19.65356445 45.69311523 C-19.62755113 40.76519617 -19.58716253 35.83758522 -19.53681374 30.9098568 C-19.52013171 29.03004476 -19.50862576 27.15017942 -19.50238609 25.27030373 C-19.49275956 22.63666119 -19.46471784 20.00380929 -19.43237305 17.37036133 C-19.43380814 16.59352493 -19.43524323 15.81668854 -19.4367218 15.01631165 C-19.35841059 10.5063406 -18.76465037 7.60111506 -16 4 C-11.00246932 0.13273125 -6.13986401 -0.43856171 0 0 Z " fill="#CF4A0A" transform="translate(687,666)"/>
<path d="M0 0 C0 0.66 0 1.32 0 2 C-1.78878462 3.19456507 -3.63549321 4.30245604 -5.5 5.375 C-18.93592636 13.37221898 -30.77613608 23.16051498 -42 34 C-42.99 33.34 -43.98 32.68 -45 32 C-43.44073252 30.41348318 -41.87743482 28.83092685 -40.3125 27.25 C-39.44238281 26.36828125 -38.57226562 25.4865625 -37.67578125 24.578125 C-35.21787132 22.20991981 -32.67622592 20.11257635 -30 18 C-28.99508608 17.00493818 -27.99445996 16.00550952 -27 15 C-21.78004341 10.715696 -16.13398528 7.09518966 -10.41796875 3.515625 C-4.4274721 -0.23932282 -4.4274721 -0.23932282 0 0 Z " fill="#D1490C" transform="translate(542,467)"/>
<path d="M0 0 C1.485 0.99 1.485 0.99 3 2 C3.39872742 4.10073853 3.39872742 4.10073853 3.43237305 6.72509766 C3.45216721 7.70596344 3.47196136 8.68682922 3.49235535 9.69741821 C3.50194023 11.28965714 3.50194023 11.28965714 3.51171875 12.9140625 C3.52966995 13.99883881 3.54762115 15.08361511 3.56611633 16.20126343 C3.6204231 19.67580239 3.65418068 23.15020242 3.6875 26.625 C3.72065504 28.97658192 3.75514298 31.32814546 3.79101562 33.6796875 C3.87616106 39.45300041 3.94442432 45.22633087 4 51 C3.67 49.68 3.34 48.36 3 47 C1.515 47.495 1.515 47.495 0 48 C0 32.16 0 16.32 0 0 Z " fill="#D04708" transform="translate(420,624)"/>
<path d="M0 0 C6.94206606 1.21210677 12.00336802 3.36700399 18 7 C19.29057666 7.71031738 20.5821531 8.41882312 21.875 9.125 C25 11 25 11 26.44921875 12.5234375 C28.22273687 14.21207691 29.6209937 14.75302676 31.9375 15.5 C35.07570784 16.59230439 37.46843482 17.78488047 40 20 C39.34 21.32 38.68 22.64 38 24 C37.46375 23.59910156 36.9275 23.19820313 36.375 22.78515625 C26.01475887 15.27057345 14.82341658 8.85144929 2.94140625 4.0703125 C1 3 1 3 0 0 Z " fill="#CE4E0D" transform="translate(727,453)"/>
<path d="M0 0 C1.18637306 -0.00087616 1.18637306 -0.00087616 2.39671326 -0.00177002 C4.99426143 0.00100246 7.59064219 0.03205351 10.18798828 0.06347656 C11.9954465 0.07094196 13.80291285 0.07663348 15.61038208 0.08062744 C20.35508788 0.09586031 25.09929968 0.13512172 29.84381104 0.17944336 C34.69023965 0.22044684 39.5367485 0.23864928 44.38330078 0.25878906 C53.88351718 0.30161838 63.38336781 0.36984114 72.88330078 0.45410156 C72.88330078 0.78410156 72.88330078 1.11410156 72.88330078 1.45410156 C71.46176193 1.46623184 71.46176193 1.46623184 70.01150513 1.47860718 C61.09402383 1.55598672 52.17669665 1.64370494 43.25941658 1.74162865 C38.67460296 1.7916415 34.08981294 1.8379709 29.50488281 1.87597656 C25.082764 1.91276661 20.66084033 1.95910902 16.23888779 2.01216507 C14.54917691 2.03074254 12.85942416 2.04583802 11.16965103 2.05744553 C8.80853404 2.07425098 6.44786727 2.10327114 4.08691406 2.13525391 C3.0317157 2.13849419 3.0317157 2.13849419 1.9552002 2.14179993 C-2.02505452 2.11140835 -2.02505452 2.11140835 -5.11669922 4.45410156 C-6.63263672 5.19660156 -6.63263672 5.19660156 -8.17919922 5.95410156 C-11.20276604 7.13190268 -11.20276604 7.13190268 -12.11669922 9.45410156 C-13.10669922 9.12410156 -14.09669922 8.79410156 -15.11669922 8.45410156 C-14.99169922 6.70410156 -14.99169922 6.70410156 -14.11669922 4.45410156 C-9.50926856 0.63372006 -5.81237761 -0.11359618 0 0 Z " fill="#C25003" transform="translate(591.11669921875,522.5458984375)"/>
<path d="M0 0 C-0.65061095 1.67299959 -1.32033324 3.33859237 -2 5 C-2.268125 5.66 -2.53625 6.32 -2.8125 7 C-5.09517834 10.84451089 -7.75191158 13.58397053 -12 15 C-17.07617801 15.53295501 -20.92970672 15.5257581 -25.5625 13.25 C-28 11 -28 11 -28.9375 8.875 C-29 7 -29 7 -28 5 C-27.59910156 5.433125 -27.19820312 5.86625 -26.78515625 6.3125 C-23.50654195 9.5242038 -21.06644032 11.45960759 -16.375 11.6875 C-12.8071671 11.44396192 -11.9858865 10.98912084 -9 8.6875 C-6.86190943 6.10687116 -6.86190943 6.10687116 -6 3 C-5.34 3 -4.68 3 -4 3 C-4 2.34 -4 1.68 -4 1 C-2 0 -2 0 0 0 Z " fill="#D04B0D" transform="translate(640,791)"/>
<path d="M0 0 C0.76171875 1.65625 0.76171875 1.65625 1 4 C-0.73046875 6.65625 -0.73046875 6.65625 -3.1875 9.5 C-4.38439453 10.90765625 -4.38439453 10.90765625 -5.60546875 12.34375 C-7.6744959 14.63891878 -9.78778266 16.84372379 -12 19 C-12 18.34 -12 17.68 -12 17 C-12.99 17.33 -13.98 17.66 -15 18 C-15 17.34 -15 16.68 -15 16 C-14.01 15.67 -13.02 15.34 -12 15 C-10.94228261 13.36935236 -9.94726954 11.69719127 -9 10 C-6.43520717 6.21387725 -3.25913186 3.18670671 0 0 Z " fill="#D04B0F" transform="translate(665,761)"/>
<path d="M0 0 C1.8871875 0.061875 1.8871875 0.061875 3.8125 0.125 C-0.69967573 6.30835192 -6.96285116 6.82392854 -14.1875 8.125 C-14.1875 7.465 -14.1875 6.805 -14.1875 6.125 C-15.8375 6.125 -17.4875 6.125 -19.1875 6.125 C-15.81968353 3.87978902 -13.25010032 3.41668539 -9.34375 2.6875 C-5.66924056 1.72893232 -3.96687065 -0.13006133 0 0 Z " fill="#D04E0D" transform="translate(707.1875,659.875)"/>
<path d="M0 0 C0.33 0 0.66 0 1 0 C1.66 6.6 2.32 13.2 3 20 C2.01 20.66 1.02 21.32 0 22 C-1.32388229 15.56971459 -2.24794402 9.5705166 -2 3 C-1.34 3 -0.68 3 0 3 C0 2.01 0 1.02 0 0 Z " fill="#D3490D" transform="translate(438,659)"/>
<path d="M0 0 C4.67199091 1.53093488 8.02170005 4.10757395 11.8125 7.125 C12.40998047 7.59292969 13.00746094 8.06085938 13.62304688 8.54296875 C15.08616792 9.69005565 16.54366297 10.84431234 18 12 C17.67 12.66 17.34 13.32 17 14 C11.04833829 12.6265396 6.2810014 9.27243939 2 5 C0.734375 2.26953125 0.734375 2.26953125 0 0 Z " fill="#D04B0C" transform="translate(770,477)"/>
<path d="M0 0 C0.99 0.66 1.98 1.32 3 2 C1.10807525 2.98669759 -0.78871978 3.9640602 -2.6875 4.9375 C-3.74324219 5.48277344 -4.79898438 6.02804687 -5.88671875 6.58984375 C-8.69043687 7.85978383 -10.93885501 8.74803185 -14 9 C-14.66 8.34 -15.32 7.68 -16 7 C-4.30672269 0.94537815 -4.30672269 0.94537815 0 0 Z " fill="#CD4B0E" transform="translate(728,652)"/>
<path d="M0 0 C2.64 0 5.28 0 8 0 C4.25 2 4.25 2 2 2 C1.67 2.99 1.34 3.98 1 5 C-1.50390625 6.16796875 -1.50390625 6.16796875 -4.5625 7.1875 C-5.57441406 7.53167969 -6.58632813 7.87585938 -7.62890625 8.23046875 C-8.41136719 8.48441406 -9.19382812 8.73835938 -10 9 C-10 8.34 -10 7.68 -10 7 C-10.66 6.67 -11.32 6.34 -12 6 C-10.3767313 5.3291288 -8.75132422 4.66342971 -7.125 4 C-6.22007812 3.62875 -5.31515625 3.2575 -4.3828125 2.875 C-2 2 -2 2 0 2 C0 1.34 0 0.68 0 0 Z " fill="#D2480A" transform="translate(579,446)"/>
<path d="M0 0 C0.33 0 0.66 0 1 0 C1.33 1.65 1.66 3.3 2 5 C2.66 5 3.32 5 4 5 C4.66 8.63 5.32 12.26 6 16 C5.34 16 4.68 16 4 16 C3.67 16.99 3.34 17.98 3 19 C-0.72528736 15.27471264 -0.05452532 9.04797196 -0.0625 4 C-0.04673341 2.66659713 -0.02777514 1.33320679 0 0 Z " fill="#D3490B" transform="translate(439,682)"/>
<path d="M0 0 C7.58954531 0.44644384 14.01639737 3.11500562 21 6 C20.01 6.33 19.02 6.66 18 7 C17.34 6.67 16.68 6.34 16 6 C15.67 6.66 15.34 7.32 15 8 C6.42857143 4.85714286 6.42857143 4.85714286 3 3 C3.33 2.67 3.66 2.34 4 2 C2.68 1.34 1.36 0.68 0 0 Z " fill="#D04A0A" transform="translate(704,445)"/>
<path d="M0 0 C0 1.32 0 2.64 0 4 C1.65 4.33 3.3 4.66 5 5 C4.67 5.66 4.34 6.32 4 7 C-0.62 5.02 -5.24 3.04 -10 1 C-10 0.67 -10 0.34 -10 0 C-6.30458414 -0.95024979 -3.69541586 -0.95024979 0 0 Z " fill="#D94812" transform="translate(563,855)"/>
<path d="M0 0 C0.33 0.66 0.66 1.32 1 2 C1.66 2 2.32 2 3 2 C3.04254356 3.99954746 3.04080783 6.00041636 3 8 C2.67 8.33 2.34 8.66 2 9 C1.95907063 11.33297433 1.95758277 13.66705225 2 16 C0.02 16.99 0.02 16.99 -2 18 C-1.34 12.06 -0.68 6.12 0 0 Z " fill="#D2490C" transform="translate(855,662)"/>
<path d="M0 0 C3.91211733 1.15585285 6.8745041 2.35534962 10 5 C9.34 6.32 8.68 7.64 8 9 C6.65826597 8.07456291 5.32679841 7.13422595 4 6.1875 C3.2575 5.66542969 2.515 5.14335937 1.75 4.60546875 C1.1725 4.07566406 0.595 3.54585938 0 3 C0 2.01 0 1.02 0 0 Z " fill="#CC4A0D" transform="translate(757,468)"/>
<path d="M0 0 C1.26328125 0.01804687 2.5265625 0.03609375 3.828125 0.0546875 C4.79234375 0.07789063 5.7565625 0.10109375 6.75 0.125 C6.75 0.785 6.75 1.445 6.75 2.125 C0.49692761 2.95788874 -5.01817361 3.16363773 -11.25 2.125 C-7.54583874 -0.25090142 -4.32015427 -0.08000286 0 0 Z " fill="#CC4103" transform="translate(632.25,436.875)"/>
<path d="M0 0 C7.48291572 6.15034169 7.48291572 6.15034169 10 10 C7.875 10.4375 7.875 10.4375 5 10 C2.60411783 7.95580695 0.56181132 5.74197701 -1 3 C-0.67 2.01 -0.34 1.02 0 0 Z " fill="#D3480F" transform="translate(485,804)"/>
<path d="M0 0 C0.33 1.32 0.66 2.64 1 4 C1.66 4 2.32 4 3 4 C2.67 6.64 2.34 9.28 2 12 C1.67 12 1.34 12 1 12 C0.67 13.65 0.34 15.3 0 17 C-0.33 17 -0.66 17 -1 17 C-1.02709444 14.91673869 -1.04643873 12.83337559 -1.0625 10.75 C-1.07410156 9.58984375 -1.08570313 8.4296875 -1.09765625 7.234375 C-1.01782092 4.59022872 -0.78643778 2.50173909 0 0 Z " fill="#D04609" transform="translate(437,621)"/>
<path d="M0 0 C4 1.33333333 8 2.66666667 12 4 C12 4.66 12 5.32 12 6 C3.80743982 5.64989059 3.80743982 5.64989059 0.4375 2.9375 C-0.036875 2.298125 -0.51125 1.65875 -1 1 C-0.67 0.67 -0.34 0.34 0 0 Z " fill="#CD4C10" transform="translate(545,849)"/>
<path d="M0 0 C0.33 0.99 0.66 1.98 1 3 C-0.43534841 3.2226746 -1.87345525 3.42761906 -3.3125 3.625 C-4.11300781 3.74101563 -4.91351562 3.85703125 -5.73828125 3.9765625 C-8 4 -8 4 -11 2 C-6.97107804 -0.96244261 -4.82799816 -1.2350693 0 0 Z " fill="#CF4D0C" transform="translate(700,867)"/>
<path d="M0 0 C3.3 0.33 6.6 0.66 10 1 C10 1.99 10 2.98 10 4 C6.7 4 3.4 4 0 4 C0 2.68 0 1.36 0 0 Z " fill="#D3470A" transform="translate(622,871)"/>
<path d="M0 0 C1.3340394 4.00211819 0.40012984 6.07963644 -1 10 C-2.625 11.9375 -2.625 11.9375 -4 13 C-4.66 12.67 -5.32 12.34 -6 12 C-4.43358249 7.69235185 -2.31663844 3.93828536 0 0 Z " fill="#D04B0D" transform="translate(753,624)"/>
<path d="M0 0 C4.02992782 0.55312735 8.02022924 1.1558062 12 2 C11.67 2.99 11.34 3.98 11 5 C7.7 4.34 4.4 3.68 1 3 C0.67 2.01 0.34 1.02 0 0 Z " fill="#D1490D" transform="translate(595,867)"/>
<path d="M0 0 C0.66 0.33 1.32 0.66 2 1 C1.61402985 3.79828356 1.19863427 4.8205884 -0.9375 6.75 C-3 8 -3 8 -5 8 C-6.34882408 8.63474075 -7.6846659 9.29848848 -9 10 C-9 9.01 -9 8.02 -9 7 C-7.36209288 5.95355934 -5.68991979 4.9601817 -4 4 C-2.63015802 2.70420353 -1.2848951 1.38007251 0 0 Z " fill="#D2470C" transform="translate(802,810)"/>
<path d="M0 0 C0.99 0.33 1.98 0.66 3 1 C2.67 4.3 2.34 7.6 2 11 C1.01 11 0.02 11 -1 11 C-2.26264601 6.70700357 -1.62950412 4.12168689 0 0 Z " fill="#D44A0D" transform="translate(441,598)"/>
<path d="M0 0 C1.77131561 0.30975468 3.54203778 0.62290425 5.3125 0.9375 C6.79169922 1.19853516 6.79169922 1.19853516 8.30078125 1.46484375 C11 2 11 2 14 3 C14 3.33 14 3.66 14 4 C10.97170479 4.6663569 8.10601995 5.14543237 5 5 C1.9375 2.5625 1.9375 2.5625 0 0 Z " fill="#CE4C0D" transform="translate(577,862)"/>
<path d="M0 0 C0.99 0.495 0.99 0.495 2 1 C2.484375 3.1796875 2.484375 3.1796875 2.75 5.875 C2.84796875 6.75929688 2.9459375 7.64359375 3.046875 8.5546875 C3 11 3 11 1 14 C-0.04976964 10.85069107 -0.10131595 8.61185544 -0.0625 5.3125 C-0.05347656 4.31863281 -0.04445313 3.32476563 -0.03515625 2.30078125 C-0.02355469 1.54152344 -0.01195312 0.78226563 0 0 Z " fill="#D55B24" transform="translate(871,614)"/>
<path d="M0 0 C4.95 0 9.9 0 15 0 C15.33 1.32 15.66 2.64 16 4 C15.01 4 14.02 4 13 4 C13 3.34 13 2.68 13 2 C8.71 1.67 4.42 1.34 0 1 C0 0.67 0 0.34 0 0 Z " fill="#CA4607" transform="translate(644,533)"/>
<path d="M0 0 C0.66 0 1.32 0 2 0 C2 0.66 2 1.32 2 2 C3.98 2 5.96 2 8 2 C6.08400609 4.44821444 5.02756971 4.99324823 1.9375 5.75 C-1 6 -1 6 -3 5 C-2.505 4.54625 -2.01 4.0925 -1.5 3.625 C0.22609337 2.12364481 0.22609337 2.12364481 0 0 Z " fill="#D5480E" transform="translate(546,459)"/>
<path d="M0 0 C1.5625 1.8125 1.5625 1.8125 3 4 C2.67 4.99 2.34 5.98 2 7 C2.88319294 10.15020361 2.88319294 10.15020361 4 13 C3.01 12.67 2.02 12.34 1 12 C0.63762737 10.37681021 0.28534843 8.7513642 -0.0625 7.125 C-0.25972656 6.22007812 -0.45695312 5.31515625 -0.66015625 4.3828125 C-1 2 -1 2 0 0 Z " fill="#D4430B" transform="translate(455,730)"/>
<path d="M0 0 C0.66 0 1.32 0 2 0 C1.33501617 4.38889325 -0.18757677 7.9811485 -2 12 C-2.66 11.67 -3.32 11.34 -4 11 C-3.5247412 9.35303396 -3.04468109 7.70745272 -2.5625 6.0625 C-2.29566406 5.14597656 -2.02882813 4.22945312 -1.75390625 3.28515625 C-1 1 -1 1 0 0 Z " fill="#D6601B" transform="translate(857,731)"/>
<path d="M0 0 C-2.35277269 2.72426311 -4.62496331 3.8141763 -8 5 C-8 3.35 -8 1.7 -8 0 C-4.71303767 -0.79953138 -3.28976808 -1.09658936 0 0 Z " fill="#D7470E" transform="translate(566,455)"/>
<path d="M0 0 C1.81495662 0.44850658 3.62693134 0.90909571 5.4375 1.375 C6.44683594 1.63023437 7.45617187 1.88546875 8.49609375 2.1484375 C11 3 11 3 12 5 C3.42857143 4.14285714 3.42857143 4.14285714 0 2 C0 1.34 0 0.68 0 0 Z " fill="#D95A1A" transform="translate(568,860)"/>
<path d="M0 0 C0.78375 0.04125 1.5675 0.0825 2.375 0.125 C1.39933888 1.29459987 0.419375 2.46061177 -0.5625 3.625 C-1.10777344 4.2746875 -1.65304687 4.924375 -2.21484375 5.59375 C-2.68019531 6.0990625 -3.14554688 6.604375 -3.625 7.125 C-3.955 7.125 -4.285 7.125 -4.625 7.125 C-4.75 4.75 -4.75 4.75 -4.625 2.125 C-2.625 0.125 -2.625 0.125 0 0 Z " fill="#D3440D" transform="translate(809.625,804.875)"/>
<path d="M0 0 C0.66 0 1.32 0 2 0 C1.67 5.28 1.34 10.56 1 16 C-1 14 -1 14 -1.23046875 10.99609375 C-1.21628906 9.82175781 -1.20210937 8.64742187 -1.1875 7.4375 C-1.17783203 5.67212891 -1.17783203 5.67212891 -1.16796875 3.87109375 C-1 1 -1 1 0 0 Z " fill="#DC4E11" transform="translate(873,660)"/>
<path d="M0 0 C3 1 3 1 4.1875 3.3125 C5 6 5 6 5 10 C4.34 10 3.68 10 3 10 C2.01 6.7 1.02 3.4 0 0 Z " fill="#DA581B" transform="translate(755,570)"/>
<path d="M0 0 C1.65 0 3.3 0 5 0 C5 1.32 5 2.64 5 4 C0.05 3.67 -4.9 3.34 -10 3 C-10 2.67 -10 2.34 -10 2 C-6.7 2 -3.4 2 0 2 C0 1.34 0 0.68 0 0 Z " fill="#D04D0C" transform="translate(668,421)"/>
<path d="M0 0 C2.00293347 3.00440021 2.49271626 4.70993945 3.125 8.1875 C3.37636719 9.53908203 3.37636719 9.53908203 3.6328125 10.91796875 C3.75398437 11.60503906 3.87515625 12.29210937 4 13 C3.34 12.67 2.68 12.34 2 12 C2 11.01 2 10.02 2 9 C1.34 9 0.68 9 0 9 C0 6.03 0 3.06 0 0 Z " fill="#DD4B14" transform="translate(866,586)"/>
<path d="M0 0 C1.32 0.33 2.64 0.66 4 1 C1.53846154 5.8 1.53846154 5.8 -1.1875 6.8125 C-1.785625 6.874375 -2.38375 6.93625 -3 7 C-2.38722388 4.03824877 -1.74627478 2.61941217 0 0 Z " fill="#D5450C" transform="translate(464,542)"/>
<path d="M0 0 C1.98 0.495 1.98 0.495 4 1 C4.33 2.98 4.66 4.96 5 7 C3.68 7 2.36 7 1 7 C-0.0625 5.1875 -0.0625 5.1875 -1 3 C-0.67 2.01 -0.34 1.02 0 0 Z " fill="#D5490C" transform="translate(819,526)"/>
<path d="M0 0 C1.32 0 2.64 0 4 0 C4 0.99 4 1.98 4 3 C2.39950296 3.39036513 0.79437629 3.76178619 -0.8125 4.125 C-1.70582031 4.33382813 -2.59914063 4.54265625 -3.51953125 4.7578125 C-6 5 -6 5 -9 3 C-5.7 3 -2.4 3 1 3 C0.67 2.01 0.34 1.02 0 0 Z " fill="#D8400D" transform="translate(635,420)"/>
<path d="M0 0 C2.01136276 2.55991624 3.62845496 5.04590299 5 8 C4.01 8.495 4.01 8.495 3 9 C2.01 8.34 1.02 7.68 0 7 C-0.1875 3.375 -0.1875 3.375 0 0 Z " fill="#D6400E" transform="translate(463,746)"/>
<path d="M0 0 C0.66 0.33 1.32 0.66 2 1 C2.40729228 3.32156597 2.74438677 5.6568787 3 8 C2.01 7.67 1.02 7.34 0 7 C-1.125 2.25 -1.125 2.25 0 0 Z " fill="#CD4E0F" transform="translate(452,724)"/>
<path d="M0 0 C0.99 0.66 1.98 1.32 3 2 C-1.95 4.475 -1.95 4.475 -7 7 C-7 6.01 -7 5.02 -7 4 C-4.69 2.68 -2.38 1.36 0 0 Z " fill="#DC4710" transform="translate(728,652)"/>
<path d="M0 0 C0.99 0 1.98 0 3 0 C2.67 2.64 2.34 5.28 2 8 C1.01 8.33 0.02 8.66 -1 9 C-0.67 6.03 -0.34 3.06 0 0 Z " fill="#D2450A" transform="translate(439,610)"/>
<path d="M0 0 C1.4606285 2.64738916 2 3.89448334 2 7 C0.68 7.33 -0.64 7.66 -2 8 C-2.33 6.02 -2.66 4.04 -3 2 C-2.34 2 -1.68 2 -1 2 C-0.67 1.34 -0.34 0.68 0 0 Z " fill="#D34A0F" transform="translate(863,575)"/>
<path d="M0 0 C5.445 1.485 5.445 1.485 11 3 C8 5 8 5 4 5 C3.67 4.34 3.34 3.68 3 3 C2.01 2.67 1.02 2.34 0 2 C0 1.34 0 0.68 0 0 Z " fill="#D94B13" transform="translate(700,528)"/>
<path d="M0 0 C2.25 0.25 2.25 0.25 4 1 C2.25 3.0625 2.25 3.0625 0 5 C-2.25 4.75 -2.25 4.75 -4 4 C-2.25 1.9375 -2.25 1.9375 0 0 Z " fill="#CB4E0C" transform="translate(529,472)"/>
<path d="M0 0 C1.98 1.65 3.96 3.3 6 5 C5.67 5.66 5.34 6.32 5 7 C2.525 6.01 2.525 6.01 0 5 C0 3.33333333 0 1.66666667 0 0 Z " fill="#CC4C0D" transform="translate(593,775)"/>
<path d="M0 0 C0.99 0.33 1.98 0.66 3 1 C1.35 2.98 -0.3 4.96 -2 7 C-2.33 6.34 -2.66 5.68 -3 5 C-3.99 5.33 -4.98 5.66 -6 6 C-6 5.34 -6 4.68 -6 4 C-4.36368108 2.95107762 -2.69514137 1.95093297 -1 1 C-0.67 0.67 -0.34 0.34 0 0 Z " fill="#DE510D" transform="translate(656,773)"/>
<path d="M0 0 C2.09350689 3.4019487 2.17942163 6.05272412 2 10 C1.34 10 0.68 10 0 10 C-0.66 7.03 -1.32 4.06 -2 1 C-1.34 0.67 -0.68 0.34 0 0 Z " fill="#CF490B" transform="translate(449,714)"/>
<path d="M0 0 C0.66 0.33 1.32 0.66 2 1 C0.4198632 3.15473199 -1.10646634 5.10646634 -3 7 C-3.99 6.34 -4.98 5.68 -6 5 C-2.25 1.125 -2.25 1.125 0 0 Z " fill="#D54B0B" transform="translate(736,645)"/>
<path d="M0 0 C0.99 0 1.98 0 3 0 C5.1875 2.5 5.1875 2.5 7 5 C3.25 6.125 3.25 6.125 1 5 C0.375 2.4375 0.375 2.4375 0 0 Z " fill="#D44B0E" transform="translate(746,557)"/>
<path d="M0 0 C0.99 0.33 1.98 0.66 3 1 C2.34 3.31 1.68 5.62 1 8 C0.34 7.34 -0.32 6.68 -1 6 C-1 2 -1 2 0 0 Z " fill="#D54712" transform="translate(816,769)"/>
<path d="M0 0 C0.33 0 0.66 0 1 0 C1.33 2.31 1.66 4.62 2 7 C2.66 7 3.32 7 4 7 C4.33 7.99 4.66 8.98 5 10 C4.34 10 3.68 10 3 10 C2.67 10.66 2.34 11.32 2 12 C-0.60018816 8.09971775 -0.15085514 4.52565431 0 0 Z " fill="#D74106" transform="translate(575,750)"/>
<path d="M0 0 C2.6855594 2.6855594 3.06049974 5.37621328 4 9 C3.01 9.66 2.02 10.32 1 11 C0 3.375 0 3.375 0 0 Z " fill="#CF480B" transform="translate(434,722)"/>
<path d="M0 0 C0.99 0 1.98 0 3 0 C3 0.66 3 1.32 3 2 C3.66 2.33 4.32 2.66 5 3 C3.68 3.99 2.36 4.98 1 6 C1 5.34 1 4.68 1 4 C0.34 3.67 -0.32 3.34 -1 3 C-0.67 2.01 -0.34 1.02 0 0 Z " fill="#D8450E" transform="translate(741,639)"/>
<path d="M0 0 C0.66 0 1.32 0 2 0 C1.34 2.97 0.68 5.94 0 9 C-0.66 9 -1.32 9 -2 9 C-1.125 2.25 -1.125 2.25 0 0 Z " fill="#D85C18" transform="translate(432,572)"/>
<path d="M0 0 C0.66 0 1.32 0 2 0 C2.33 1.32 2.66 2.64 3 4 C1.02 5.32 -0.96 6.64 -3 8 C-2.690625 7.236875 -2.38125 6.47375 -2.0625 5.6875 C-1.32106407 3.81210323 -0.63771783 1.91315348 0 0 Z " fill="#CA4B09" transform="translate(469,532)"/>
<path d="M0 0 C0.66 0.33 1.32 0.66 2 1 C0.35 2.65 -1.3 4.3 -3 6 C-3.99 5.67 -4.98 5.34 -6 5 C-5.34 3.68 -4.68 2.36 -4 1 C-3.34 1 -2.68 1 -2 1 C-1.34 0.67 -0.68 0.34 0 0 Z " fill="#CF4306" transform="translate(582,526)"/>
<path d="M0 0 C-0.99 0.33 -1.98 0.66 -3 1 C-3 1.99 -3 2.98 -3 4 C-3.66 4 -4.32 4 -5 4 C-5 3.34 -5 2.68 -5 2 C-6.65 2 -8.3 2 -10 2 C-6.3558226 -0.4294516 -4.28758728 -0.16179575 0 0 Z " fill="#D0470B" transform="translate(698,664)"/>
<path d="M0 0 C2.56616632 3.84924948 2.55097676 6.4349304 3 11 C2.67 10.01 2.34 9.02 2 8 C1.34 8 0.68 8 0 8 C-0.98120464 4.94736336 -0.98120464 3.05263664 0 0 Z " fill="#CF4C0D" transform="translate(866,596)"/>
<path d="M0 0 C3.96 0 7.92 0 12 0 C12 0.33 12 0.66 12 1 C10.95199219 1.07347656 10.95199219 1.07347656 9.8828125 1.1484375 C8.97273437 1.22320313 8.06265625 1.29796875 7.125 1.375 C6.22007812 1.44460938 5.31515625 1.51421875 4.3828125 1.5859375 C1.82058097 1.79568132 1.82058097 1.79568132 0 4 C0 2.68 0 1.36 0 0 Z " fill="#D94E0B" transform="translate(616,534)"/>
<path d="M0 0 C2.64 0.33 5.28 0.66 8 1 C7.34 2.32 6.68 3.64 6 5 C3.98079663 3.69593116 1.98075027 2.36176581 0 1 C0 0.67 0 0.34 0 0 Z " fill="#DB3C0B" transform="translate(759,472)"/>
<path d="M0 0 C2.31 0.66 4.62 1.32 7 2 C6.01 3.485 6.01 3.485 5 5 C2.03824877 4.38722388 0.61941217 3.74627478 -2 2 C-1.34 2 -0.68 2 0 2 C0 1.34 0 0.68 0 0 Z " fill="#D2440C" transform="translate(723,433)"/>
<path d="M0 0 C2.64 0 5.28 0 8 0 C7.01 1.485 7.01 1.485 6 3 C3.69 2.67 1.38 2.34 -1 2 C-0.67 1.34 -0.34 0.68 0 0 Z " fill="#D54813" transform="translate(586,866)"/>
<path d="M0 0 C1.65 1.32 3.3 2.64 5 4 C4.01 4.33 3.02 4.66 2 5 C-0.6875 3.5625 -0.6875 3.5625 -3 2 C-2.01 1.34 -1.02 0.68 0 0 Z " fill="#D3450D" transform="translate(524,816)"/>
<path d="M0 0 C2.97 1.98 2.97 1.98 6 4 C4.02 4.99 4.02 4.99 2 6 C1.34 5.34 0.68 4.68 0 4 C0 2.68 0 1.36 0 0 Z " fill="#CD4D0F" transform="translate(506,802)"/>
<path d="M0 0 C0.66 0 1.32 0 2 0 C1.67 1.98 1.34 3.96 1 6 C0.01 6.33 -0.98 6.66 -2 7 C-1.125 1.125 -1.125 1.125 0 0 Z " fill="#D2420F" transform="translate(445,588)"/>
<path d="M0 0 C4.875 4.75 4.875 4.75 6 7 C4.125 6.6875 4.125 6.6875 2 6 C0 3 0 3 0 0 Z " fill="#D94515" transform="translate(824,505)"/>
<path d="M0 0 C0.99 0.33 1.98 0.66 3 1 C-2.75 6 -2.75 6 -5 6 C-5 5.34 -5 4.68 -5 4 C-2.6875 1.8125 -2.6875 1.8125 0 0 Z " fill="#D65B13" transform="translate(508,467)"/>
<path d="M0 0 C2.125 0.9375 2.125 0.9375 4 2 C1.625 3.5625 1.625 3.5625 -1 5 C-1.66 4.67 -2.32 4.34 -3 4 C-2.67 3.01 -2.34 2.02 -2 1 C-1.34 0.67 -0.68 0.34 0 0 Z " fill="#C94F11" transform="translate(549,442)"/>
<path d="" fill="#FF8000" transform="translate(0,0)"/>
<path d="" fill="#FF8000" transform="translate(0,0)"/>
<path d="" fill="#FF8000" transform="translate(0,0)"/>
</svg>
